<?xml version="1.0" encoding="UTF-8"?>
<svg width="1083px" height="251px" viewBox="0 0 1083 251" version="1.1" xmlns="http://www.w3.org/2000/svg" xmlns:xlink="http://www.w3.org/1999/xlink">
    <!-- Generator: Sketch 61 (89581) - https://sketch.com -->
    <title>编组 3</title>
    <desc>Created with Sketch.</desc>
    <g id="页面-1" stroke="none" stroke-width="1" fill="none" fill-rule="evenodd">
        <g id="编组-3" transform="translate(0.000000, -2.000000)">
            <g id="编组" fill-rule="nonzero">
                <g transform="translate(0.322321, 0.395925)">
                    <g>
                        <rect id="矩形" fill-opacity="0" fill="#333333" x="0" y="2.59634888" width="166.166329" height="146.686378"></rect>
                        <g>
                            <path d="M276.722326,186.521704 L229.641866,106.034888 L188.321839,35.4141988 L147.001812,106.034888 C139.297471,119.235623 139.297471,135.206568 147.001812,148.407302 L188.321839,219.027992 L194.082272,228.894118 C207.043245,251.040974 239.63954,261.634077 269.881812,240.032454 C285.252197,221.156998 285.252197,201.268966 276.722326,186.521704 Z" id="路径" fill="#6E50FF"></path>
                            <path d="M135.480947,106.034888 L94.1609195,35.4141988 L52.8408925,106.034888 L5.76043272,186.521704 C-2.76943881,201.268966 -2.76943881,221.156998 12.6009466,240.032454 C42.8432184,261.634077 75.4395132,251.040974 88.4004868,228.894118 L94.1609195,219.027992 L135.480947,148.407302 C143.185288,135.206568 143.185288,119.235623 135.480947,106.034888 Z" id="路径" fill="#FFE600"></path>
                            <path d="M229.641866,106.034888 L188.321839,35.4141988 L181.896741,46.3707911 L188.321839,35.4141988 L182.561406,25.548073 C174.307699,11.379502 158.461448,2.56578155 141.241379,2.56578155 C124.021311,2.56578155 108.17506,11.379502 99.9213523,25.548073 L94.1609195,35.4141988 L106.235673,56.0292089 L94.1609195,35.4141988 L52.8408925,106.034888 C45.1365511,119.235623 45.1365511,135.206568 52.8408925,148.407302 L94.1609195,219.027992 L99.9213523,228.894118 C108.17506,243.062689 124.021311,251.876409 141.241379,251.876409 C158.461448,251.876409 174.307699,243.062689 182.561406,228.894118 L188.321839,219.027992 L229.641866,148.407302 C237.346207,135.206568 237.346207,119.235623 229.641866,106.034888 Z M116.510291,180.809736 L108.783556,194.025152 L116.510291,180.809736 Z" id="形状" fill="#AF82FF" opacity="0.8"></path>
                        </g>
                    </g>
                </g>
            </g>
            <text id="APEBANK" font-family="ArialRoundedMTBold, Arial Rounded MT Bold" font-size="160" font-weight="normal" letter-spacing="-3.8588235" fill="#EBE5E5">
                <tspan x="322" y="176">APEBANK</tspan>
            </text>
        </g>
    </g>
</svg>